<svg xmlns="http://www.w3.org/2000/svg" viewBox="0 0 59.99 12.16"><defs><style>.cls-1{fill:#231f20;}.cls-2{fill:#fff;}</style></defs><g id="Layer_2" data-name="Layer 2"><g id="Layer_1-2" data-name="Layer 1"><rect class="cls-1" y="0.62" width="25.73" height="11"/><path class="cls-2" d="M2.27,11.39a3.15,3.15,0,0,1-.71-2.2V9H3.32V9.3q0,1.17,1,1.17a.91.91,0,0,0,.77-.32A1.88,1.88,0,0,0,5.31,9V6.75h0a1.7,1.7,0,0,1-1.68,1,1.81,1.81,0,0,1-1.54-.69,3.28,3.28,0,0,1-.52-2V3A3.09,3.09,0,0,1,2.25.78,2.72,2.72,0,0,1,4.34,0a2.72,2.72,0,0,1,2.1.78A3.1,3.1,0,0,1,7.17,3V9.08c0,2.05-1,3.08-2.84,3.08A2.67,2.67,0,0,1,2.27,11.39Zm3-6.46V2.84c0-.77-.32-1.15-1-1.15s-1,.38-1,1.15V4.93q0,1.17,1,1.17C5,6.1,5.31,5.71,5.31,4.93Z"/><path class="cls-2" d="M8.47,3.77h1.79V5.56H8.47Zm0,6.43h1.79V12H8.47Z"/><path class="cls-2" d="M14.75,9.84H11.2V8.16l3.38-8h2v8h.88V9.84H16.6V12H14.75Zm0-1.68V3.55h0L12.89,8.16Z"/><path class="cls-2" d="M19.05,11.39a3.15,3.15,0,0,1-.71-2.2V8.26H20.1V9.32c0,.77.32,1.15,1,1.15s1-.38,1-1.15V6.67q0-1.17-1-1.17t-1,1.17v.1H18.34l.34-6.6h4.9V1.86H20.34l-.16,2.82h0a1.73,1.73,0,0,1,1.6-.86,1.81,1.81,0,0,1,1.54.69,3.28,3.28,0,0,1,.52,2V9.19a3.15,3.15,0,0,1-.71,2.2,2.67,2.67,0,0,1-2.06.77A2.67,2.67,0,0,1,19.05,11.39Z"/><path class="cls-1" d="M27.23.7h2.62a2.5,2.5,0,0,1,1.92.68,2.89,2.89,0,0,1,.64,2V8.91a2.9,2.9,0,0,1-.64,2,2.54,2.54,0,0,1-1.92.68H27.23Zm2.59,9.35a.82.82,0,0,0,.65-.25A1.17,1.17,0,0,0,30.69,9V3.32a1.22,1.22,0,0,0-.22-.82.85.85,0,0,0-.65-.24H29v7.79Z"/><path class="cls-1" d="M33.66.7h4.67V2.26h-3V5.14h2.35V6.7H35.37v3.35h3v1.56H33.66Z"/><path class="cls-1" d="M39.78,11.06a3,3,0,0,1-.64-2V8.4h1.63v.75c0,.7.29,1.06.88,1.06a.84.84,0,0,0,.67-.26,1.25,1.25,0,0,0,.22-.83,2.29,2.29,0,0,0-.31-1.21,5.81,5.81,0,0,0-1.15-1.26A6.65,6.65,0,0,1,39.6,5a3.44,3.44,0,0,1-.42-1.71,2.82,2.82,0,0,1,.65-2,2.47,2.47,0,0,1,1.9-.71,2.39,2.39,0,0,1,1.87.71,3,3,0,0,1,.63,2v.46H42.61V3.18a1.28,1.28,0,0,0-.22-.82.81.81,0,0,0-.64-.26c-.57,0-.86.35-.86,1a2.08,2.08,0,0,0,.32,1.11A6.16,6.16,0,0,0,42.37,5.5a6.29,6.29,0,0,1,1.48,1.7A3.78,3.78,0,0,1,44.26,9a2.93,2.93,0,0,1-.66,2.06,2.51,2.51,0,0,1-1.93.72A2.44,2.44,0,0,1,39.78,11.06Z"/><path class="cls-1" d="M45.33.7h1.72V11.61H45.33Z"/><path class="cls-1" d="M49,11.06a2.92,2.92,0,0,1-.65-2V3.28a2.91,2.91,0,0,1,.65-2,2.91,2.91,0,0,1,3.81,0,2.91,2.91,0,0,1,.65,2v.94H51.79v-1c0-.72-.3-1.08-.89-1.08S50,2.46,50,3.18v6c0,.7.3,1.06.89,1.06s.89-.36.89-1.06V7h-.86V5.45h2.48V9a2.92,2.92,0,0,1-.65,2,2.91,2.91,0,0,1-3.81,0Z"/><path class="cls-1" d="M54.61.7h2.15l1.67,6.53h0V.7H60V11.61H58.23l-2.06-8h0v8H54.61Z"/></g></g></svg>