<svg xmlns="http://www.w3.org/2000/svg" viewBox="0 0 66.58 115.56"><defs><style>.cls-1{fill:#412d88;opacity:0.49;}.cls-2{fill:#dc88b9;}.cls-3{fill:#dfa3c9;}.cls-4{fill:#8b6bae;}.cls-5{fill:#774d9e;}</style></defs><g id="Layer_2" data-name="Layer 2"><g id="Layer_1-2" data-name="Layer 1"><path class="cls-1" d="M19.77,103h-.71l-1-2.59h-4c-.15.41-.3.84-.47,1.29s-.32.89-.48,1.3h-.62c.26-.69.52-1.38.78-2s.52-1.33.77-2,.51-1.32.77-2,.52-1.35.78-2h.83Zm-1.86-3L16,95.44l-1.77,4.48Z"/><path class="cls-1" d="M25.79,103H21.05v-8h.59v7.46h4.15Z"/><path class="cls-1" d="M28.23,103h-.59v-8h.59Z"/><path class="cls-1" d="M33.52,103.12A5.42,5.42,0,0,1,32.1,103a3,3,0,0,1-1-.5,2.15,2.15,0,0,1-.64-.77,2.73,2.73,0,0,1-.25-1h.58a2.27,2.27,0,0,0,.33.91,1.81,1.81,0,0,0,.6.57,2.52,2.52,0,0,0,.81.3,5,5,0,0,0,1,.09,4.11,4.11,0,0,0,1-.11,2.45,2.45,0,0,0,.73-.33,1.48,1.48,0,0,0,.47-.53,1.39,1.39,0,0,0,.16-.68,1.52,1.52,0,0,0-.14-.68,1.22,1.22,0,0,0-.47-.49,3.62,3.62,0,0,0-.87-.36c-.36-.11-.81-.22-1.34-.33a8.79,8.79,0,0,1-1.14-.34,3,3,0,0,1-.78-.45,1.58,1.58,0,0,1-.46-.58,1.81,1.81,0,0,1-.14-.76,1.9,1.9,0,0,1,.19-.86,2,2,0,0,1,.57-.67,2.53,2.53,0,0,1,.87-.43,3.67,3.67,0,0,1,1.13-.16,4,4,0,0,1,1.13.15,2.66,2.66,0,0,1,.9.41,2.14,2.14,0,0,1,.93,1.55h-.56a2,2,0,0,0-.27-.61,1.94,1.94,0,0,0-.47-.48,2.59,2.59,0,0,0-.69-.32,3.68,3.68,0,0,0-.92-.11,2.74,2.74,0,0,0-1.63.4,1.27,1.27,0,0,0-.56,1.09,1.35,1.35,0,0,0,.1.55,1.14,1.14,0,0,0,.35.42,2.19,2.19,0,0,0,.65.33,6.85,6.85,0,0,0,1,.27l.73.15c.25.06.49.12.73.2a3.71,3.71,0,0,1,.68.27,2.32,2.32,0,0,1,.56.39,1.92,1.92,0,0,1,.39.57,2.17,2.17,0,0,1-.08,1.72,2.13,2.13,0,0,1-.6.74,2.88,2.88,0,0,1-.92.49A3.92,3.92,0,0,1,33.52,103.12Z"/><path class="cls-1" d="M41.6,94.77a3.82,3.82,0,0,1,1.52.3,3.36,3.36,0,0,1,1.2.83,3.92,3.92,0,0,1,.79,1.31,4.87,4.87,0,0,1,.28,1.71,5,5,0,0,1-.28,1.71,4,4,0,0,1-.78,1.32,3.53,3.53,0,0,1-1.2.86,3.64,3.64,0,0,1-1.53.31,3.72,3.72,0,0,1-1.54-.31,3.45,3.45,0,0,1-1.2-.85,3.92,3.92,0,0,1-.79-1.33,5.11,5.11,0,0,1-.28-1.71,4.87,4.87,0,0,1,.29-1.71,3.82,3.82,0,0,1,.79-1.31,3.45,3.45,0,0,1,1.2-.83A3.8,3.8,0,0,1,41.6,94.77Zm0,7.76a3.27,3.27,0,0,0,1.27-.24,2.86,2.86,0,0,0,1-.7,3.35,3.35,0,0,0,.66-1.14,4.82,4.82,0,0,0,.23-1.53,4.47,4.47,0,0,0-.24-1.53,3.06,3.06,0,0,0-.66-1.11,2.68,2.68,0,0,0-1-.69,3.4,3.4,0,0,0-1.26-.23,3.35,3.35,0,0,0-1.28.24,2.69,2.69,0,0,0-1,.68,3.22,3.22,0,0,0-.67,1.12,4.45,4.45,0,0,0-.24,1.52,4.55,4.55,0,0,0,.24,1.53,3.06,3.06,0,0,0,.66,1.14,2.71,2.71,0,0,0,1,.7A3.35,3.35,0,0,0,41.59,102.53Z"/><path class="cls-1" d="M53.3,103h-.78l-4.91-7.35V103H47v-8h.81l4.88,7.34V94.92h.59Z"/><path class="cls-1" d="M6.23,109.51a2.12,2.12,0,0,0-.3-.67,2.39,2.39,0,0,0-.55-.55,2.88,2.88,0,0,0-.77-.36,3,3,0,0,0-.92-.13,3.26,3.26,0,0,0-1.27.23,2.53,2.53,0,0,0-1,.67,3.31,3.31,0,0,0-.62,1.11,5.83,5.83,0,0,0,0,3.1A3.31,3.31,0,0,0,1.45,114a2.47,2.47,0,0,0,1,.69,3.13,3.13,0,0,0,1.25.24,3,3,0,0,0,1.72-.47,2,2,0,0,0,.84-1.36h.61a2.81,2.81,0,0,1-.36,1,2.51,2.51,0,0,1-.69.76,2.77,2.77,0,0,1-.94.47,4,4,0,0,1-1.17.17,3.76,3.76,0,0,1-1.53-.3A3.36,3.36,0,0,1,1,114.42a3.85,3.85,0,0,1-.73-1.32A5.58,5.58,0,0,1,0,111.36a5.4,5.4,0,0,1,.26-1.72A3.73,3.73,0,0,1,1,108.33a3.21,3.21,0,0,1,1.16-.83,3.89,3.89,0,0,1,1.52-.29,3.68,3.68,0,0,1,1.11.17,3.37,3.37,0,0,1,1,.47,3,3,0,0,1,.7.73,2.58,2.58,0,0,1,.4.93Z"/><path class="cls-1" d="M12,107.21a4,4,0,0,1,1.52.29,3.42,3.42,0,0,1,1.2.84,3.92,3.92,0,0,1,.79,1.31,5.33,5.33,0,0,1,0,3.41,3.74,3.74,0,0,1-.78,1.33,3.53,3.53,0,0,1-1.2.86,3.8,3.8,0,0,1-1.53.31,3.88,3.88,0,0,1-1.54-.31,3.44,3.44,0,0,1-1.2-.86,3.61,3.61,0,0,1-.78-1.32,4.87,4.87,0,0,1-.28-1.71,4.93,4.93,0,0,1,.28-1.72,3.78,3.78,0,0,1,.79-1.3,3.62,3.62,0,0,1,1.2-.84A4,4,0,0,1,12,107.21ZM12,115a3.35,3.35,0,0,0,1.28-.24,2.83,2.83,0,0,0,1-.7,3.35,3.35,0,0,0,.66-1.14,4.55,4.55,0,0,0,.24-1.53,4.47,4.47,0,0,0-.24-1.53,3.22,3.22,0,0,0-.67-1.12,2.66,2.66,0,0,0-1-.68,3.4,3.4,0,0,0-1.26-.23,3.55,3.55,0,0,0-1.28.23,2.84,2.84,0,0,0-1,.69,3,3,0,0,0-.67,1.12,4.41,4.41,0,0,0-.24,1.52,4.55,4.55,0,0,0,.24,1.53A3.35,3.35,0,0,0,9.75,114a2.74,2.74,0,0,0,1,.7A3.3,3.3,0,0,0,12,115Z"/><path class="cls-1" d="M20.49,115.56a5.08,5.08,0,0,1-1.43-.18,2.85,2.85,0,0,1-1-.49,2.15,2.15,0,0,1-.64-.77,2.74,2.74,0,0,1-.26-1h.58a2.28,2.28,0,0,0,.33.9,1.94,1.94,0,0,0,.6.58,2.58,2.58,0,0,0,.82.3,4.92,4.92,0,0,0,1,.09,3.55,3.55,0,0,0,1-.12,2,2,0,0,0,.74-.33,1.55,1.55,0,0,0,.47-.52,1.53,1.53,0,0,0,.16-.69,1.55,1.55,0,0,0-.14-.68,1.34,1.34,0,0,0-.47-.48,3.6,3.6,0,0,0-.87-.37q-.54-.15-1.35-.33a6.11,6.11,0,0,1-1.13-.34,2.81,2.81,0,0,1-.79-.44,1.66,1.66,0,0,1-.45-.58,1.81,1.81,0,0,1-.15-.76,1.88,1.88,0,0,1,.2-.86,1.9,1.9,0,0,1,.56-.67,2.79,2.79,0,0,1,.88-.44,4,4,0,0,1,1.13-.15,4.43,4.43,0,0,1,1.13.14,3.11,3.11,0,0,1,.9.42,2.05,2.05,0,0,1,.62.66,2.15,2.15,0,0,1,.31.88h-.57a2,2,0,0,0-.26-.6,1.57,1.57,0,0,0-.48-.48,2.2,2.2,0,0,0-.69-.32,3.54,3.54,0,0,0-.91-.11,2.78,2.78,0,0,0-1.64.4,1.24,1.24,0,0,0-.55,1.08,1.4,1.4,0,0,0,.1.56,1.12,1.12,0,0,0,.35.42,2.61,2.61,0,0,0,.65.33,10,10,0,0,0,1,.27l.72.15.74.19a5.72,5.72,0,0,1,.68.28,2.24,2.24,0,0,1,.56.39,1.79,1.79,0,0,1,.38.56,1.87,1.87,0,0,1,.15.78,2.17,2.17,0,0,1-.22,1,2.39,2.39,0,0,1-.61.74,2.63,2.63,0,0,1-.91.48A3.66,3.66,0,0,1,20.49,115.56Z"/><path class="cls-1" d="M32.65,115.41h-.59v-7.09l-2.89,7.09h-.62l-2.89-7.09v7.09h-.59v-8h.85l2.94,7.31,2.95-7.31h.84Z"/><path class="cls-1" d="M40.51,115.41H34.7v-8h5.61V108h-5v3H40v.59H35.28v3.31h5.23Z"/><path class="cls-1" d="M47.85,108H45v7.46h-.58V108H41.66v-.59h6.19Z"/><path class="cls-1" d="M50.14,115.41h-.59v-8h.59Z"/><path class="cls-1" d="M58.32,109.51a1.75,1.75,0,0,0-.3-.67,2.39,2.39,0,0,0-.55-.55,2.81,2.81,0,0,0-.76-.36,3.1,3.1,0,0,0-.92-.13,3.23,3.23,0,0,0-1.27.23,2.45,2.45,0,0,0-1,.67,3,3,0,0,0-.62,1.11,5.57,5.57,0,0,0,0,3.1,3,3,0,0,0,.62,1.13,2.37,2.37,0,0,0,1,.69,3.13,3.13,0,0,0,1.25.24,3,3,0,0,0,1.72-.47,2,2,0,0,0,.84-1.36h.61a2.81,2.81,0,0,1-.36,1,2.62,2.62,0,0,1-.68.76,2.82,2.82,0,0,1-1,.47,4,4,0,0,1-1.16.17,3.73,3.73,0,0,1-1.53-.3,3.27,3.27,0,0,1-1.16-.84,3.87,3.87,0,0,1-.74-1.32,5.58,5.58,0,0,1-.26-1.74,5.4,5.4,0,0,1,.26-1.72,3.73,3.73,0,0,1,.74-1.31,3.21,3.21,0,0,1,1.16-.83,3.94,3.94,0,0,1,1.53-.29,3.62,3.62,0,0,1,1.1.17,3.07,3.07,0,0,1,1.66,1.2,2.56,2.56,0,0,1,.39.93Z"/><path class="cls-1" d="M63.68,115.56a5,5,0,0,1-1.42-.18,3,3,0,0,1-1-.49,2,2,0,0,1-.63-.77,2.56,2.56,0,0,1-.26-1h.58a2.28,2.28,0,0,0,.33.9,1.75,1.75,0,0,0,.6.58,2.61,2.61,0,0,0,.81.3,5.07,5.07,0,0,0,1,.09,3.63,3.63,0,0,0,1-.12,2,2,0,0,0,.73-.33,1.45,1.45,0,0,0,.47-.52,1.41,1.41,0,0,0,.16-.69,1.42,1.42,0,0,0-.14-.68,1.26,1.26,0,0,0-.47-.48,3.6,3.6,0,0,0-.87-.37c-.36-.1-.81-.21-1.34-.33a6.48,6.48,0,0,1-1.14-.34,2.89,2.89,0,0,1-.78-.44,1.58,1.58,0,0,1-.46-.58,2,2,0,0,1-.14-.76,1.76,1.76,0,0,1,.2-.86,1.9,1.9,0,0,1,.56-.67,2.74,2.74,0,0,1,.87-.44,4,4,0,0,1,1.13-.15,4.43,4.43,0,0,1,1.13.14,3.05,3.05,0,0,1,.91.42,2.23,2.23,0,0,1,.93,1.54h-.57a1.79,1.79,0,0,0-.27-.6,1.65,1.65,0,0,0-.47-.48,2.2,2.2,0,0,0-.69-.32,3.63,3.63,0,0,0-.92-.11,2.74,2.74,0,0,0-1.63.4,1.25,1.25,0,0,0-.56,1.08,1.4,1.4,0,0,0,.11.56,1.09,1.09,0,0,0,.34.42,2.89,2.89,0,0,0,.66.33,9.71,9.71,0,0,0,1,.27l.73.15.73.19a4.61,4.61,0,0,1,.68.28,2.13,2.13,0,0,1,.57.39,2.21,2.21,0,0,1,.38.56,2.2,2.2,0,0,1-.08,1.73,2.23,2.23,0,0,1-.6.74,2.68,2.68,0,0,1-.92.48A3.57,3.57,0,0,1,63.68,115.56Z"/><path class="cls-2" d="M39.57,4.28A17,17,0,0,0,36.33,0c.11.68-2,3.38-4.92,6.33-3.14,3.13-6,5.33-6.46,4.9a.3.3,0,0,1,0-.26c-.05.37-.08.72-.11,1V22.07h17V12A19.31,19.31,0,0,0,39.57,4.28Z"/><ellipse class="cls-3" cx="30.6" cy="5.74" rx="8.03" ry="1.15" transform="translate(4.91 23.32) rotate(-45)"/><path class="cls-4" d="M43,23.63H23.62c-1.64,0-3,3-3,6.77v59H36.49V81.83h4.57v7.53H46v-59C46,26.66,44.65,23.63,43,23.63ZM36.49,71.85V36.1a2.29,2.29,0,1,1,4.57,0V71.85Z"/><path class="cls-5" d="M36.49,71.85V30.4c0-3.74,1.32-6.77,3-6.77H23.62c-1.64,0-3,3-3,6.77v59H36.49V71.85Z"/></g></g></svg>