<svg width="1452" height="1718" viewBox="0 0 1452 1718" fill="none" xmlns="http://www.w3.org/2000/svg">
<circle cx="677.517" cy="455.767" r="43.4625" transform="rotate(-20.7058 677.517 455.767)" fill="#FF0808"/>
<circle cx="720.975" cy="575.084" r="75.1705" transform="rotate(-20.7058 720.975 575.084)" fill="#FF0808"/>
<circle cx="604.776" cy="524.092" r="43.4625" transform="rotate(-65.7058 604.776 524.092)" fill="#FF0808"/>
<circle cx="601.646" cy="623.836" r="43.4625" transform="rotate(-110.706 601.646 623.836)" fill="#FF0808"/>
<circle cx="669.976" cy="696.573" r="43.4625" transform="rotate(-155.706 669.976 696.573)" fill="#FF0808"/>
<circle cx="769.714" cy="699.699" r="43.4625" transform="rotate(159.294 769.714 699.699)" fill="#FF0808"/>
<circle cx="842.456" cy="631.373" r="43.4625" transform="rotate(114.294 842.456 631.373)" fill="#FF0808"/>
<circle cx="845.578" cy="531.63" r="43.4625" transform="rotate(69.2942 845.578 531.63)" fill="#FF0808"/>
<circle cx="777.266" cy="458.893" r="43.4625" transform="rotate(24.2942 777.266 458.893)" fill="#FF0808"/>
<path d="M551.65 0H899.35V292.693C857.64 309.864 824.486 341.685 799.272 379.253C824.204 249.683 818.952 98.9168 727.494 8.33516C637.128 97.8356 631.301 246.093 655.52 374.604C629.283 337.047 594.86 305.712 551.65 289.833V0Z" fill="#FF0909"/>
<path d="M436.175 405.634H146V753.334H437.84C454.163 713.214 483.942 680.931 519.36 655.976C391.109 679.95 243.454 673.895 154.214 583.792C244.997 492.131 396.233 487.058 525.996 512.18C486.267 485.733 452.845 450.458 436.175 405.634Z" fill="#FF0909"/>
<path d="M551.65 874.522V1159H899.35V873.059C859.134 856.768 826.78 826.963 801.778 791.496C825.846 919.848 819.879 1067.74 729.675 1157.08C637.785 1066.07 632.916 914.305 658.251 784.326C631.82 824.186 596.529 857.754 551.65 874.522Z" fill="#FF0909"/>
<path d="M1017.99 753.334H1305V405.634H1021.06C1005.22 448.942 973.855 483.436 936.25 509.72C1064.86 485.405 1213.36 491.142 1302.96 581.611C1212.15 673.296 1060.86 678.347 931.075 653.203C968.768 678.403 1000.73 711.573 1017.99 753.334Z" fill="#FF0909"/>
<path d="M721.252 570.366C721.283 571.689 721.303 572.999 721.311 574.293C718.164 574.273 714.926 574.184 711.605 574.027C717.524 577.125 723.058 580.211 728.173 583.263C724.702 585.334 721.038 587.422 717.192 589.519C717.768 589.508 718.341 589.499 718.912 589.493C719.292 589.488 719.672 589.485 720.05 589.482C720.028 592.885 719.927 596.395 719.745 600C722.898 593.962 726.04 588.322 729.146 583.117C731.177 586.522 733.225 590.112 735.282 593.878C735.261 592.824 735.247 591.779 735.24 590.744C738.36 590.764 741.57 590.851 744.861 591.005C739.208 588.032 733.91 585.07 728.999 582.14C732.689 579.939 736.597 577.718 740.71 575.487C739.29 575.523 737.887 575.545 736.501 575.554C736.519 572.69 736.594 569.75 736.726 566.741C733.807 572.278 730.9 577.473 728.023 582.294C725.782 578.539 723.522 574.559 721.252 570.366Z" fill="#FF0909"/>
<path d="M356.04 1468.46H403.4V1476.53H356.04V1468.46ZM357.064 1509.81H410.952V1518H347.592V1428.4H409.032V1436.59H357.064V1509.81ZM452.417 1518V1428.4H488.897C498.454 1428.4 506.817 1430.32 513.985 1434.16C521.238 1437.91 526.87 1443.16 530.881 1449.9C534.892 1456.65 536.897 1464.41 536.897 1473.2C536.897 1481.99 534.892 1489.75 530.881 1496.5C526.87 1503.24 521.238 1508.53 513.985 1512.37C506.817 1516.12 498.454 1518 488.897 1518H452.417ZM461.889 1509.81H488.385C496.321 1509.81 503.19 1508.27 508.993 1505.2C514.881 1502.04 519.446 1497.73 522.689 1492.27C525.932 1486.73 527.553 1480.37 527.553 1473.2C527.553 1465.95 525.932 1459.59 522.689 1454.13C519.446 1448.67 514.881 1444.4 508.993 1441.33C503.19 1438.17 496.321 1436.59 488.385 1436.59H461.889V1509.81ZM585.815 1468.46H633.175V1476.53H585.815V1468.46ZM586.839 1509.81H640.727V1518H577.367V1428.4H638.807V1436.59H586.839V1509.81ZM682.192 1518V1428.4H691.664V1509.81H741.84V1518H682.192ZM790.369 1518L760.161 1428.4H769.889L798.177 1512.75H793.313L822.497 1428.4H831.201L860.001 1512.75H855.393L883.937 1428.4H893.025L862.817 1518H852.833L825.313 1438H827.873L800.225 1518H790.369ZM938.04 1468.46H985.4V1476.53H938.04V1468.46ZM939.064 1509.81H992.952V1518H929.592V1428.4H991.032V1436.59H939.064V1509.81ZM1034.42 1518V1428.4H1043.89V1518H1034.42ZM1116.95 1518.77C1110.29 1518.77 1103.89 1517.7 1097.75 1515.57C1091.69 1513.35 1086.99 1510.53 1083.67 1507.12L1087.38 1499.82C1090.54 1502.9 1094.76 1505.5 1100.05 1507.63C1105.43 1509.68 1111.06 1510.7 1116.95 1510.7C1122.58 1510.7 1127.14 1510.02 1130.64 1508.66C1134.23 1507.21 1136.83 1505.29 1138.45 1502.9C1140.16 1500.51 1141.01 1497.86 1141.01 1494.96C1141.01 1491.46 1139.99 1488.65 1137.94 1486.51C1135.98 1484.38 1133.37 1482.71 1130.13 1481.52C1126.89 1480.24 1123.3 1479.13 1119.38 1478.19C1115.45 1477.25 1111.53 1476.27 1107.6 1475.25C1103.68 1474.14 1100.05 1472.69 1096.72 1470.9C1093.48 1469.1 1090.83 1466.76 1088.79 1463.86C1086.82 1460.87 1085.84 1456.99 1085.84 1452.21C1085.84 1447.77 1086.99 1443.72 1089.3 1440.05C1091.69 1436.29 1095.31 1433.31 1100.18 1431.09C1105.04 1428.78 1111.27 1427.63 1118.87 1427.63C1123.9 1427.63 1128.89 1428.36 1133.84 1429.81C1138.79 1431.17 1143.06 1433.09 1146.64 1435.57L1143.44 1443.12C1139.6 1440.56 1135.51 1438.68 1131.15 1437.49C1126.89 1436.29 1122.75 1435.7 1118.74 1435.7C1113.36 1435.7 1108.92 1436.42 1105.43 1437.87C1101.93 1439.32 1099.32 1441.29 1097.62 1443.76C1096 1446.15 1095.19 1448.88 1095.19 1451.95C1095.19 1455.45 1096.17 1458.27 1098.13 1460.4C1100.18 1462.53 1102.82 1464.2 1106.07 1465.39C1109.39 1466.59 1113.02 1467.65 1116.95 1468.59C1120.87 1469.53 1124.75 1470.55 1128.59 1471.66C1132.52 1472.77 1136.1 1474.22 1139.35 1476.02C1142.67 1477.72 1145.32 1480.03 1147.28 1482.93C1149.33 1485.83 1150.35 1489.63 1150.35 1494.32C1150.35 1498.67 1149.16 1502.73 1146.77 1506.48C1144.38 1510.15 1140.71 1513.14 1135.76 1515.44C1130.9 1517.66 1124.63 1518.77 1116.95 1518.77ZM1214.9 1518.77C1208.24 1518.77 1201.84 1517.7 1195.7 1515.57C1189.64 1513.35 1184.94 1510.53 1181.62 1507.12L1185.33 1499.82C1188.49 1502.9 1192.71 1505.5 1198 1507.63C1203.38 1509.68 1209.01 1510.7 1214.9 1510.7C1220.53 1510.7 1225.09 1510.02 1228.59 1508.66C1232.18 1507.21 1234.78 1505.29 1236.4 1502.9C1238.11 1500.51 1238.96 1497.86 1238.96 1494.96C1238.96 1491.46 1237.94 1488.65 1235.89 1486.51C1233.93 1484.38 1231.32 1482.71 1228.08 1481.52C1224.84 1480.24 1221.25 1479.13 1217.33 1478.19C1213.4 1477.25 1209.48 1476.27 1205.55 1475.25C1201.63 1474.14 1198 1472.69 1194.67 1470.9C1191.43 1469.1 1188.78 1466.76 1186.74 1463.86C1184.77 1460.87 1183.79 1456.99 1183.79 1452.21C1183.79 1447.77 1184.94 1443.72 1187.25 1440.05C1189.64 1436.29 1193.26 1433.31 1198.13 1431.09C1202.99 1428.78 1209.22 1427.63 1216.82 1427.63C1221.85 1427.63 1226.84 1428.36 1231.79 1429.81C1236.74 1431.17 1241.01 1433.09 1244.59 1435.57L1241.39 1443.12C1237.55 1440.56 1233.46 1438.68 1229.1 1437.49C1224.84 1436.29 1220.7 1435.7 1216.69 1435.7C1211.31 1435.7 1206.87 1436.42 1203.38 1437.87C1199.88 1439.32 1197.27 1441.29 1195.57 1443.76C1193.95 1446.15 1193.14 1448.88 1193.14 1451.95C1193.14 1455.45 1194.12 1458.27 1196.08 1460.4C1198.13 1462.53 1200.77 1464.2 1204.02 1465.39C1207.34 1466.59 1210.97 1467.65 1214.9 1468.59C1218.82 1469.53 1222.7 1470.55 1226.54 1471.66C1230.47 1472.77 1234.05 1474.22 1237.3 1476.02C1240.62 1477.72 1243.27 1480.03 1245.23 1482.93C1247.28 1485.83 1248.3 1489.63 1248.3 1494.32C1248.3 1498.67 1247.11 1502.73 1244.72 1506.48C1242.33 1510.15 1238.66 1513.14 1233.71 1515.44C1228.85 1517.66 1222.58 1518.77 1214.9 1518.77Z" fill="white"/>
<path d="M546.752 1620.38C543.381 1620.38 540.267 1619.83 537.408 1618.72C534.549 1617.57 532.075 1615.97 529.984 1613.92C527.893 1611.87 526.251 1609.46 525.056 1606.69C523.904 1603.91 523.328 1600.89 523.328 1597.6C523.328 1594.31 523.904 1591.29 525.056 1588.51C526.251 1585.74 527.893 1583.33 529.984 1581.28C532.117 1579.23 534.613 1577.65 537.472 1576.54C540.331 1575.39 543.445 1574.82 546.816 1574.82C550.059 1574.82 553.109 1575.37 555.968 1576.48C558.827 1577.55 561.237 1579.17 563.2 1581.34L560.192 1584.35C558.357 1582.47 556.331 1581.13 554.112 1580.32C551.893 1579.47 549.504 1579.04 546.944 1579.04C544.256 1579.04 541.76 1579.51 539.456 1580.45C537.152 1581.34 535.147 1582.65 533.44 1584.35C531.733 1586.02 530.389 1587.98 529.408 1590.24C528.469 1592.46 528 1594.91 528 1597.6C528 1600.29 528.469 1602.76 529.408 1605.02C530.389 1607.24 531.733 1609.21 533.44 1610.91C535.147 1612.58 537.152 1613.88 539.456 1614.82C541.76 1615.71 544.256 1616.16 546.944 1616.16C549.504 1616.16 551.893 1615.73 554.112 1614.88C556.331 1614.03 558.357 1612.66 560.192 1610.78L563.2 1613.79C561.237 1615.97 558.827 1617.61 555.968 1618.72C553.109 1619.83 550.037 1620.38 546.752 1620.38ZM604.743 1620.38C601.372 1620.38 598.236 1619.83 595.334 1618.72C592.476 1617.57 589.98 1615.97 587.846 1613.92C585.756 1611.83 584.113 1609.42 582.918 1606.69C581.766 1603.91 581.19 1600.89 581.19 1597.6C581.19 1594.31 581.766 1591.31 582.918 1588.58C584.113 1585.8 585.756 1583.39 587.846 1581.34C589.98 1579.25 592.476 1577.65 595.334 1576.54C598.193 1575.39 601.329 1574.82 604.743 1574.82C608.113 1574.82 611.228 1575.39 614.087 1576.54C616.945 1577.65 619.42 1579.23 621.511 1581.28C623.644 1583.33 625.287 1585.74 626.439 1588.51C627.633 1591.29 628.231 1594.31 628.231 1597.6C628.231 1600.89 627.633 1603.91 626.439 1606.69C625.287 1609.46 623.644 1611.87 621.511 1613.92C619.42 1615.97 616.945 1617.57 614.087 1618.72C611.228 1619.83 608.113 1620.38 604.743 1620.38ZM604.743 1616.16C607.431 1616.16 609.905 1615.71 612.167 1614.82C614.471 1613.88 616.455 1612.58 618.118 1610.91C619.825 1609.21 621.148 1607.24 622.087 1605.02C623.025 1602.76 623.495 1600.29 623.495 1597.6C623.495 1594.91 623.025 1592.46 622.087 1590.24C621.148 1587.98 619.825 1586.02 618.118 1584.35C616.455 1582.65 614.471 1581.34 612.167 1580.45C609.905 1579.51 607.431 1579.04 604.743 1579.04C602.055 1579.04 599.559 1579.51 597.254 1580.45C594.95 1581.34 592.945 1582.65 591.238 1584.35C589.574 1586.02 588.252 1587.98 587.27 1590.24C586.332 1592.46 585.862 1594.91 585.862 1597.6C585.862 1600.25 586.332 1602.7 587.27 1604.96C588.252 1607.22 589.574 1609.21 591.238 1610.91C592.945 1612.58 594.95 1613.88 597.254 1614.82C599.559 1615.71 602.055 1616.16 604.743 1616.16ZM651.646 1620V1575.2H655.55L686.462 1614.11H684.414V1575.2H689.086V1620H685.182L654.334 1581.09H656.382V1620H651.646ZM728.86 1620.38C725.532 1620.38 722.332 1619.85 719.26 1618.78C716.231 1617.67 713.884 1616.27 712.22 1614.56L714.076 1610.91C715.655 1612.45 717.767 1613.75 720.412 1614.82C723.1 1615.84 725.916 1616.35 728.86 1616.35C731.676 1616.35 733.959 1616.01 735.708 1615.33C737.5 1614.6 738.802 1613.64 739.612 1612.45C740.466 1611.25 740.892 1609.93 740.892 1608.48C740.892 1606.73 740.38 1605.32 739.356 1604.26C738.375 1603.19 737.074 1602.36 735.452 1601.76C733.831 1601.12 732.039 1600.57 730.076 1600.1C728.114 1599.63 726.151 1599.14 724.188 1598.62C722.226 1598.07 720.412 1597.34 718.748 1596.45C717.127 1595.55 715.804 1594.38 714.78 1592.93C713.799 1591.43 713.308 1589.49 713.308 1587.1C713.308 1584.89 713.884 1582.86 715.036 1581.02C716.231 1579.15 718.044 1577.65 720.476 1576.54C722.908 1575.39 726.023 1574.82 729.82 1574.82C732.338 1574.82 734.834 1575.18 737.308 1575.9C739.783 1576.59 741.916 1577.55 743.708 1578.78L742.108 1582.56C740.188 1581.28 738.14 1580.34 735.964 1579.74C733.831 1579.15 731.762 1578.85 729.756 1578.85C727.068 1578.85 724.85 1579.21 723.1 1579.94C721.351 1580.66 720.05 1581.64 719.196 1582.88C718.386 1584.07 717.98 1585.44 717.98 1586.98C717.98 1588.73 718.471 1590.13 719.452 1591.2C720.476 1592.27 721.799 1593.1 723.42 1593.7C725.084 1594.29 726.898 1594.83 728.86 1595.3C730.823 1595.77 732.764 1596.28 734.684 1596.83C736.647 1597.39 738.439 1598.11 740.06 1599.01C741.724 1599.86 743.047 1601.01 744.028 1602.46C745.052 1603.91 745.564 1605.81 745.564 1608.16C745.564 1610.34 744.967 1612.36 743.772 1614.24C742.578 1616.07 740.743 1617.57 738.268 1618.72C735.836 1619.83 732.7 1620.38 728.86 1620.38ZM786.731 1620.38C781.014 1620.38 776.513 1618.74 773.227 1615.46C769.942 1612.17 768.299 1607.31 768.299 1600.86V1575.2H773.035V1600.67C773.035 1605.96 774.23 1609.87 776.619 1612.38C779.009 1614.9 782.379 1616.16 786.731 1616.16C791.126 1616.16 794.518 1614.9 796.907 1612.38C799.297 1609.87 800.491 1605.96 800.491 1600.67V1575.2H805.099V1600.86C805.099 1607.31 803.457 1612.17 800.171 1615.46C796.929 1618.74 792.449 1620.38 786.731 1620.38ZM832.171 1620V1575.2H836.907V1615.9H861.995V1620H832.171ZM887.175 1620V1579.3H871.431V1575.2H907.655V1579.3H891.911V1620H887.175ZM928.021 1620V1575.2H932.757V1620H928.021ZM960.133 1620V1575.2H964.037L994.949 1614.11H992.901V1575.2H997.573V1620H993.669L962.821 1581.09H964.869V1620H960.133ZM1044.64 1620.38C1041.23 1620.38 1038.07 1619.83 1035.17 1618.72C1032.31 1617.57 1029.82 1615.97 1027.68 1613.92C1025.59 1611.87 1023.95 1609.46 1022.76 1606.69C1021.6 1603.91 1021.03 1600.89 1021.03 1597.6C1021.03 1594.31 1021.6 1591.29 1022.76 1588.51C1023.95 1585.74 1025.61 1583.33 1027.75 1581.28C1029.88 1579.23 1032.38 1577.65 1035.24 1576.54C1038.14 1575.39 1041.29 1574.82 1044.71 1574.82C1048.12 1574.82 1051.24 1575.35 1054.05 1576.42C1056.91 1577.48 1059.34 1579.1 1061.35 1581.28L1058.4 1584.29C1056.53 1582.41 1054.46 1581.07 1052.2 1580.26C1049.93 1579.45 1047.5 1579.04 1044.9 1579.04C1042.13 1579.04 1039.57 1579.51 1037.22 1580.45C1034.92 1581.34 1032.89 1582.65 1031.14 1584.35C1029.43 1586.02 1028.09 1587.98 1027.11 1590.24C1026.17 1592.46 1025.7 1594.91 1025.7 1597.6C1025.7 1600.25 1026.17 1602.7 1027.11 1604.96C1028.09 1607.22 1029.43 1609.21 1031.14 1610.91C1032.89 1612.58 1034.92 1613.88 1037.22 1614.82C1039.57 1615.71 1042.11 1616.16 1044.84 1616.16C1047.4 1616.16 1049.81 1615.78 1052.07 1615.01C1054.37 1614.24 1056.48 1612.94 1058.4 1611.1L1061.09 1614.69C1058.96 1616.57 1056.46 1617.99 1053.6 1618.98C1050.75 1619.91 1047.76 1620.38 1044.64 1620.38ZM1056.55 1614.11V1597.6H1061.09V1614.69L1056.55 1614.11Z" fill="white"/>
<path d="M36 1343.6H110V1356.2H36V1343.6ZM37.6 1408.2H121.8V1421H22.8V1281H118.8V1293.8H37.6V1408.2ZM186.589 1421V1281H243.589C258.522 1281 271.589 1284 282.789 1290C294.122 1295.87 302.922 1304.07 309.189 1314.6C315.456 1325.13 318.589 1337.27 318.589 1351C318.589 1364.73 315.456 1376.87 309.189 1387.4C302.922 1397.93 294.122 1406.2 282.789 1412.2C271.589 1418.07 258.522 1421 243.589 1421H186.589ZM201.389 1408.2H242.789C255.189 1408.2 265.922 1405.8 274.989 1401C284.189 1396.07 291.322 1389.33 296.389 1380.8C301.456 1372.13 303.989 1362.2 303.989 1351C303.989 1339.67 301.456 1329.73 296.389 1321.2C291.322 1312.67 284.189 1306 274.989 1301.2C265.922 1296.27 255.189 1293.8 242.789 1293.8H201.389V1408.2ZM395.023 1343.6H469.023V1356.2H395.023V1343.6ZM396.623 1408.2H480.823V1421H381.823V1281H477.823V1293.8H396.623V1408.2ZM545.613 1421V1281H560.413V1408.2H638.813V1421H545.613ZM714.639 1421L667.439 1281H682.639L726.839 1412.8H719.239L764.839 1281H778.439L823.439 1412.8H816.239L860.839 1281H875.039L827.839 1421H812.239L769.239 1296H773.239L730.039 1421H714.639ZM945.375 1343.6H1019.38V1356.2H945.375V1343.6ZM946.975 1408.2H1031.18V1421H932.175V1281H1028.18V1293.8H946.975V1408.2ZM1095.96 1421V1281H1110.76V1421H1095.96ZM1224.92 1422.2C1214.52 1422.2 1204.52 1420.53 1194.92 1417.2C1185.45 1413.73 1178.12 1409.33 1172.92 1404L1178.72 1392.6C1183.65 1397.4 1190.25 1401.47 1198.52 1404.8C1206.92 1408 1215.72 1409.6 1224.92 1409.6C1233.72 1409.6 1240.85 1408.53 1246.32 1406.4C1251.92 1404.13 1255.98 1401.13 1258.52 1397.4C1261.18 1393.67 1262.52 1389.53 1262.52 1385C1262.52 1379.53 1260.92 1375.13 1257.72 1371.8C1254.65 1368.47 1250.58 1365.87 1245.52 1364C1240.45 1362 1234.85 1360.27 1228.72 1358.8C1222.58 1357.33 1216.45 1355.8 1210.32 1354.2C1204.18 1352.47 1198.52 1350.2 1193.32 1347.4C1188.25 1344.6 1184.12 1340.93 1180.92 1336.4C1177.85 1331.73 1176.32 1325.67 1176.32 1318.2C1176.32 1311.27 1178.12 1304.93 1181.72 1299.2C1185.45 1293.33 1191.12 1288.67 1198.72 1285.2C1206.32 1281.6 1216.05 1279.8 1227.92 1279.8C1235.78 1279.8 1243.58 1280.93 1251.32 1283.2C1259.05 1285.33 1265.72 1288.33 1271.32 1292.2L1266.32 1304C1260.32 1300 1253.92 1297.07 1247.12 1295.2C1240.45 1293.33 1233.98 1292.4 1227.72 1292.4C1219.32 1292.4 1212.38 1293.53 1206.92 1295.8C1201.45 1298.07 1197.38 1301.13 1194.72 1305C1192.18 1308.73 1190.92 1313 1190.92 1317.8C1190.92 1323.27 1192.45 1327.67 1195.52 1331C1198.72 1334.33 1202.85 1336.93 1207.92 1338.8C1213.12 1340.67 1218.78 1342.33 1224.92 1343.8C1231.05 1345.27 1237.12 1346.87 1243.12 1348.6C1249.25 1350.33 1254.85 1352.6 1259.92 1355.4C1265.12 1358.07 1269.25 1361.67 1272.32 1366.2C1275.52 1370.73 1277.12 1376.67 1277.12 1384C1277.12 1390.8 1275.25 1397.13 1271.52 1403C1267.78 1408.73 1262.05 1413.4 1254.32 1417C1246.72 1420.47 1236.92 1422.2 1224.92 1422.2ZM1377.96 1422.2C1367.56 1422.2 1357.56 1420.53 1347.96 1417.2C1338.5 1413.73 1331.16 1409.33 1325.96 1404L1331.76 1392.6C1336.7 1397.4 1343.3 1401.47 1351.56 1404.8C1359.96 1408 1368.76 1409.6 1377.96 1409.6C1386.76 1409.6 1393.9 1408.53 1399.36 1406.4C1404.96 1404.13 1409.03 1401.13 1411.56 1397.4C1414.23 1393.67 1415.56 1389.53 1415.56 1385C1415.56 1379.53 1413.96 1375.13 1410.76 1371.8C1407.7 1368.47 1403.63 1365.87 1398.56 1364C1393.5 1362 1387.9 1360.27 1381.76 1358.8C1375.63 1357.33 1369.5 1355.8 1363.36 1354.2C1357.23 1352.47 1351.56 1350.2 1346.36 1347.4C1341.3 1344.6 1337.16 1340.93 1333.96 1336.4C1330.9 1331.73 1329.36 1325.67 1329.36 1318.2C1329.36 1311.27 1331.16 1304.93 1334.76 1299.2C1338.5 1293.33 1344.16 1288.67 1351.76 1285.2C1359.36 1281.6 1369.1 1279.8 1380.96 1279.8C1388.83 1279.8 1396.63 1280.93 1404.36 1283.2C1412.1 1285.33 1418.76 1288.33 1424.36 1292.2L1419.36 1304C1413.36 1300 1406.96 1297.07 1400.16 1295.2C1393.5 1293.33 1387.03 1292.4 1380.76 1292.4C1372.36 1292.4 1365.43 1293.53 1359.96 1295.8C1354.5 1298.07 1350.43 1301.13 1347.76 1305C1345.23 1308.73 1343.96 1313 1343.96 1317.8C1343.96 1323.27 1345.5 1327.67 1348.56 1331C1351.76 1334.33 1355.9 1336.93 1360.96 1338.8C1366.16 1340.67 1371.83 1342.33 1377.96 1343.8C1384.1 1345.27 1390.16 1346.87 1396.16 1348.6C1402.3 1350.33 1407.9 1352.6 1412.96 1355.4C1418.16 1358.07 1422.3 1361.67 1425.36 1366.2C1428.56 1370.73 1430.16 1376.67 1430.16 1384C1430.16 1390.8 1428.3 1397.13 1424.56 1403C1420.83 1408.73 1415.1 1413.4 1407.36 1417C1399.76 1420.47 1389.96 1422.2 1377.96 1422.2Z" fill="black"/>
<path d="M336.8 1595.6C331.533 1595.6 326.667 1594.73 322.2 1593C317.733 1591.2 313.867 1588.7 310.6 1585.5C307.333 1582.3 304.767 1578.53 302.9 1574.2C301.1 1569.87 300.2 1565.13 300.2 1560C300.2 1554.87 301.1 1550.13 302.9 1545.8C304.767 1541.47 307.333 1537.7 310.6 1534.5C313.933 1531.3 317.833 1528.83 322.3 1527.1C326.767 1525.3 331.633 1524.4 336.9 1524.4C341.967 1524.4 346.733 1525.27 351.2 1527C355.667 1528.67 359.433 1531.2 362.5 1534.6L357.8 1539.3C354.933 1536.37 351.767 1534.27 348.3 1533C344.833 1531.67 341.1 1531 337.1 1531C332.9 1531 329 1531.73 325.4 1533.2C321.8 1534.6 318.667 1536.63 316 1539.3C313.333 1541.9 311.233 1544.97 309.7 1548.5C308.233 1551.97 307.5 1555.8 307.5 1560C307.5 1564.2 308.233 1568.07 309.7 1571.6C311.233 1575.07 313.333 1578.13 316 1580.8C318.667 1583.4 321.8 1585.43 325.4 1586.9C329 1588.3 332.9 1589 337.1 1589C341.1 1589 344.833 1588.33 348.3 1587C351.767 1585.67 354.933 1583.53 357.8 1580.6L362.5 1585.3C359.433 1588.7 355.667 1591.27 351.2 1593C346.733 1594.73 341.933 1595.6 336.8 1595.6ZM427.41 1595.6C422.143 1595.6 417.243 1594.73 412.71 1593C408.243 1591.2 404.343 1588.7 401.01 1585.5C397.743 1582.23 395.177 1578.47 393.31 1574.2C391.51 1569.87 390.61 1565.13 390.61 1560C390.61 1554.87 391.51 1550.17 393.31 1545.9C395.177 1541.57 397.743 1537.8 401.01 1534.6C404.343 1531.33 408.243 1528.83 412.71 1527.1C417.177 1525.3 422.077 1524.4 427.41 1524.4C432.677 1524.4 437.543 1525.3 442.01 1527.1C446.477 1528.83 450.343 1531.3 453.61 1534.5C456.943 1537.7 459.51 1541.47 461.31 1545.8C463.177 1550.13 464.11 1554.87 464.11 1560C464.11 1565.13 463.177 1569.87 461.31 1574.2C459.51 1578.53 456.943 1582.3 453.61 1585.5C450.343 1588.7 446.477 1591.2 442.01 1593C437.543 1594.73 432.677 1595.6 427.41 1595.6ZM427.41 1589C431.61 1589 435.477 1588.3 439.01 1586.9C442.61 1585.43 445.71 1583.4 448.31 1580.8C450.977 1578.13 453.043 1575.07 454.51 1571.6C455.977 1568.07 456.71 1564.2 456.71 1560C456.71 1555.8 455.977 1551.97 454.51 1548.5C453.043 1544.97 450.977 1541.9 448.31 1539.3C445.71 1536.63 442.61 1534.6 439.01 1533.2C435.477 1531.73 431.61 1531 427.41 1531C423.21 1531 419.31 1531.73 415.71 1533.2C412.11 1534.6 408.977 1536.63 406.31 1539.3C403.71 1541.9 401.643 1544.97 400.11 1548.5C398.643 1551.97 397.91 1555.8 397.91 1560C397.91 1564.13 398.643 1567.97 400.11 1571.5C401.643 1575.03 403.71 1578.13 406.31 1580.8C408.977 1583.4 412.11 1585.43 415.71 1586.9C419.31 1588.3 423.21 1589 427.41 1589ZM500.697 1595V1525H506.797L555.097 1585.8H551.897V1525H559.197V1595H553.097L504.897 1534.2H508.097V1595H500.697ZM621.345 1595.6C616.145 1595.6 611.145 1594.77 606.345 1593.1C601.611 1591.37 597.945 1589.17 595.345 1586.5L598.245 1580.8C600.711 1583.2 604.011 1585.23 608.145 1586.9C612.345 1588.5 616.745 1589.3 621.345 1589.3C625.745 1589.3 629.311 1588.77 632.045 1587.7C634.845 1586.57 636.878 1585.07 638.145 1583.2C639.478 1581.33 640.145 1579.27 640.145 1577C640.145 1574.27 639.345 1572.07 637.745 1570.4C636.211 1568.73 634.178 1567.43 631.645 1566.5C629.111 1565.5 626.311 1564.63 623.245 1563.9C620.178 1563.17 617.111 1562.4 614.045 1561.6C610.978 1560.73 608.145 1559.6 605.545 1558.2C603.011 1556.8 600.945 1554.97 599.345 1552.7C597.811 1550.37 597.045 1547.33 597.045 1543.6C597.045 1540.13 597.945 1536.97 599.745 1534.1C601.611 1531.17 604.445 1528.83 608.245 1527.1C612.045 1525.3 616.911 1524.4 622.845 1524.4C626.778 1524.4 630.678 1524.97 634.545 1526.1C638.411 1527.17 641.745 1528.67 644.545 1530.6L642.045 1536.5C639.045 1534.5 635.845 1533.03 632.445 1532.1C629.111 1531.17 625.878 1530.7 622.745 1530.7C618.545 1530.7 615.078 1531.27 612.345 1532.4C609.611 1533.53 607.578 1535.07 606.245 1537C604.978 1538.87 604.345 1541 604.345 1543.4C604.345 1546.13 605.111 1548.33 606.645 1550C608.245 1551.67 610.311 1552.97 612.845 1553.9C615.445 1554.83 618.278 1555.67 621.345 1556.4C624.411 1557.13 627.445 1557.93 630.445 1558.8C633.511 1559.67 636.311 1560.8 638.845 1562.2C641.445 1563.53 643.511 1565.33 645.045 1567.6C646.645 1569.87 647.445 1572.83 647.445 1576.5C647.445 1579.9 646.511 1583.07 644.645 1586C642.778 1588.87 639.911 1591.2 636.045 1593C632.245 1594.73 627.345 1595.6 621.345 1595.6ZM711.768 1595.6C702.835 1595.6 695.801 1593.03 690.668 1587.9C685.535 1582.77 682.968 1575.17 682.968 1565.1V1525H690.368V1564.8C690.368 1573.07 692.235 1579.17 695.968 1583.1C699.701 1587.03 704.968 1589 711.768 1589C718.635 1589 723.935 1587.03 727.668 1583.1C731.401 1579.17 733.268 1573.07 733.268 1564.8V1525H740.468V1565.1C740.468 1575.17 737.901 1582.77 732.768 1587.9C727.701 1593.03 720.701 1595.6 711.768 1595.6ZM782.767 1595V1525H790.167V1588.6H829.367V1595H782.767ZM868.711 1595V1531.4H844.111V1525H900.711V1531.4H876.111V1595H868.711ZM932.533 1595V1525H939.933V1595H932.533ZM982.709 1595V1525H988.809L1037.11 1585.8H1033.91V1525H1041.21V1595H1035.11L986.909 1534.2H990.109V1595H982.709ZM1114.76 1595.6C1109.42 1595.6 1104.49 1594.73 1099.96 1593C1095.49 1591.2 1091.59 1588.7 1088.26 1585.5C1084.99 1582.3 1082.42 1578.53 1080.56 1574.2C1078.76 1569.87 1077.86 1565.13 1077.86 1560C1077.86 1554.87 1078.76 1550.13 1080.56 1545.8C1082.42 1541.47 1085.02 1537.7 1088.36 1534.5C1091.69 1531.3 1095.59 1528.83 1100.06 1527.1C1104.59 1525.3 1109.52 1524.4 1114.86 1524.4C1120.19 1524.4 1125.06 1525.23 1129.46 1526.9C1133.92 1528.57 1137.72 1531.1 1140.86 1534.5L1136.26 1539.2C1133.32 1536.27 1130.09 1534.17 1126.56 1532.9C1123.02 1531.63 1119.22 1531 1115.16 1531C1110.82 1531 1106.82 1531.73 1103.16 1533.2C1099.56 1534.6 1096.39 1536.63 1093.66 1539.3C1090.99 1541.9 1088.89 1544.97 1087.36 1548.5C1085.89 1551.97 1085.16 1555.8 1085.16 1560C1085.16 1564.13 1085.89 1567.97 1087.36 1571.5C1088.89 1575.03 1090.99 1578.13 1093.66 1580.8C1096.39 1583.4 1099.56 1585.43 1103.16 1586.9C1106.82 1588.3 1110.79 1589 1115.06 1589C1119.06 1589 1122.82 1588.4 1126.36 1587.2C1129.96 1586 1133.26 1583.97 1136.26 1581.1L1140.46 1586.7C1137.12 1589.63 1133.22 1591.87 1128.76 1593.4C1124.29 1594.87 1119.62 1595.6 1114.76 1595.6ZM1133.36 1585.8V1560H1140.46V1586.7L1133.36 1585.8Z" fill="black"/>
</svg>
