<svg width="3000" height="2000" viewBox="0 0 3000 2000" fill="none" xmlns="http://www.w3.org/2000/svg">
<rect width="3000" height="2000" fill="white"/>
<circle cx="1452.52" cy="580.767" r="43.4625" transform="rotate(-20.7058 1452.52 580.767)" fill="#FF0808"/>
<circle cx="1495.97" cy="700.084" r="75.1705" transform="rotate(-20.7058 1495.97 700.084)" fill="#FF0808"/>
<circle cx="1379.78" cy="649.092" r="43.4625" transform="rotate(-65.7058 1379.78 649.092)" fill="#FF0808"/>
<circle cx="1376.65" cy="748.836" r="43.4625" transform="rotate(-110.706 1376.65 748.836)" fill="#FF0808"/>
<circle cx="1444.98" cy="821.573" r="43.4625" transform="rotate(-155.706 1444.98 821.573)" fill="#FF0808"/>
<circle cx="1544.71" cy="824.699" r="43.4625" transform="rotate(159.294 1544.71 824.699)" fill="#FF0808"/>
<circle cx="1617.46" cy="756.373" r="43.4625" transform="rotate(114.294 1617.46 756.373)" fill="#FF0808"/>
<circle cx="1620.58" cy="656.63" r="43.4625" transform="rotate(69.2942 1620.58 656.63)" fill="#FF0808"/>
<circle cx="1552.27" cy="583.893" r="43.4625" transform="rotate(24.2942 1552.27 583.893)" fill="#FF0808"/>
<path d="M1326.65 125H1674.35V417.693C1632.64 434.864 1599.49 466.685 1574.27 504.253C1599.2 374.683 1593.95 223.917 1502.49 133.335C1412.13 222.836 1406.3 371.093 1430.52 499.604C1404.28 462.047 1369.86 430.712 1326.65 414.833V125Z" fill="#FF0909"/>
<path d="M1211.18 530.634H921V878.334H1212.84C1229.16 838.214 1258.94 805.931 1294.36 780.976C1166.11 804.95 1018.45 798.895 929.214 708.792C1020 617.131 1171.23 612.058 1301 637.18C1261.27 610.733 1227.84 575.458 1211.18 530.634Z" fill="#FF0909"/>
<path d="M1326.65 999.522V1284H1674.35V998.059C1634.13 981.768 1601.78 951.963 1576.78 916.496C1600.85 1044.85 1594.88 1192.74 1504.67 1282.08C1412.79 1191.07 1407.92 1039.3 1433.25 909.326C1406.82 949.186 1371.53 982.754 1326.65 999.522Z" fill="#FF0909"/>
<path d="M1792.99 878.334H2080V530.634H1796.06C1780.22 573.942 1748.85 608.436 1711.25 634.72C1839.86 610.405 1988.36 616.142 2077.96 706.611C1987.15 798.296 1835.86 803.347 1706.08 778.203C1743.77 803.403 1775.73 836.573 1792.99 878.334Z" fill="#FF0909"/>
<path d="M1496.25 695.366C1496.28 696.689 1496.3 697.999 1496.31 699.293C1493.16 699.273 1489.93 699.184 1486.61 699.027C1492.52 702.125 1498.06 705.211 1503.17 708.263C1499.7 710.334 1496.04 712.422 1492.19 714.519C1492.77 714.508 1493.34 714.499 1493.91 714.493C1494.29 714.488 1494.67 714.485 1495.05 714.482C1495.03 717.885 1494.93 721.395 1494.75 725C1497.9 718.962 1501.04 713.322 1504.15 708.117C1506.18 711.522 1508.23 715.112 1510.28 718.878C1510.26 717.824 1510.25 716.779 1510.24 715.744C1513.36 715.764 1516.57 715.851 1519.86 716.005C1514.21 713.032 1508.91 710.07 1504 707.14C1507.69 704.939 1511.6 702.718 1515.71 700.487C1514.29 700.523 1512.89 700.545 1511.5 700.554C1511.52 697.69 1511.59 694.75 1511.73 691.741C1508.81 697.278 1505.9 702.473 1503.02 707.294C1500.78 703.539 1498.52 699.559 1496.25 695.366Z" fill="#FF0909"/>
<path d="M910.7 1871.9C902.8 1871.9 895.5 1870.6 888.8 1868C882.1 1865.3 876.3 1861.55 871.4 1856.75C866.5 1851.95 862.65 1846.3 859.85 1839.8C857.15 1833.3 855.8 1826.2 855.8 1818.5C855.8 1810.8 857.15 1803.7 859.85 1797.2C862.65 1790.7 866.5 1785.05 871.4 1780.25C876.4 1775.45 882.25 1771.75 888.95 1769.15C895.65 1766.45 902.95 1765.1 910.85 1765.1C918.45 1765.1 925.6 1766.4 932.3 1769C939 1771.5 944.65 1775.3 949.25 1780.4L942.2 1787.45C937.9 1783.05 933.15 1779.9 927.95 1778C922.75 1776 917.15 1775 911.15 1775C904.85 1775 899 1776.1 893.6 1778.3C888.2 1780.4 883.5 1783.45 879.5 1787.45C875.5 1791.35 872.35 1795.95 870.05 1801.25C867.85 1806.45 866.75 1812.2 866.75 1818.5C866.75 1824.8 867.85 1830.6 870.05 1835.9C872.35 1841.1 875.5 1845.7 879.5 1849.7C883.5 1853.6 888.2 1856.65 893.6 1858.85C899 1860.95 904.85 1862 911.15 1862C917.15 1862 922.75 1861 927.95 1859C933.15 1857 937.9 1853.8 942.2 1849.4L949.25 1856.45C944.65 1861.55 939 1865.4 932.3 1868C925.6 1870.6 918.4 1871.9 910.7 1871.9ZM1046.62 1871.9C1038.72 1871.9 1031.37 1870.6 1024.57 1868C1017.87 1865.3 1012.02 1861.55 1007.02 1856.75C1002.12 1851.85 998.265 1846.2 995.465 1839.8C992.765 1833.3 991.415 1826.2 991.415 1818.5C991.415 1810.8 992.765 1803.75 995.465 1797.35C998.265 1790.85 1002.12 1785.2 1007.02 1780.4C1012.02 1775.5 1017.87 1771.75 1024.57 1769.15C1031.27 1766.45 1038.62 1765.1 1046.62 1765.1C1054.52 1765.1 1061.82 1766.45 1068.52 1769.15C1075.22 1771.75 1081.02 1775.45 1085.92 1780.25C1090.92 1785.05 1094.77 1790.7 1097.47 1797.2C1100.27 1803.7 1101.67 1810.8 1101.67 1818.5C1101.67 1826.2 1100.27 1833.3 1097.47 1839.8C1094.77 1846.3 1090.92 1851.95 1085.92 1856.75C1081.02 1861.55 1075.22 1865.3 1068.52 1868C1061.82 1870.6 1054.52 1871.9 1046.62 1871.9ZM1046.62 1862C1052.92 1862 1058.72 1860.95 1064.02 1858.85C1069.42 1856.65 1074.07 1853.6 1077.97 1849.7C1081.97 1845.7 1085.07 1841.1 1087.27 1835.9C1089.47 1830.6 1090.57 1824.8 1090.57 1818.5C1090.57 1812.2 1089.47 1806.45 1087.27 1801.25C1085.07 1795.95 1081.97 1791.35 1077.97 1787.45C1074.07 1783.45 1069.42 1780.4 1064.02 1778.3C1058.72 1776.1 1052.92 1775 1046.62 1775C1040.32 1775 1034.47 1776.1 1029.07 1778.3C1023.67 1780.4 1018.97 1783.45 1014.97 1787.45C1011.07 1791.35 1007.97 1795.95 1005.67 1801.25C1003.47 1806.45 1002.37 1812.2 1002.37 1818.5C1002.37 1824.7 1003.47 1830.45 1005.67 1835.75C1007.97 1841.05 1011.07 1845.7 1014.97 1849.7C1018.97 1853.6 1023.67 1856.65 1029.07 1858.85C1034.47 1860.95 1040.32 1862 1046.62 1862ZM1156.55 1871V1766H1165.7L1238.15 1857.2H1233.35V1766H1244.3V1871H1235.15L1162.85 1779.8H1167.65V1871H1156.55ZM1337.52 1871.9C1329.72 1871.9 1322.22 1870.65 1315.02 1868.15C1307.92 1865.55 1302.42 1862.25 1298.52 1858.25L1302.87 1849.7C1306.57 1853.3 1311.52 1856.35 1317.72 1858.85C1324.02 1861.25 1330.62 1862.45 1337.52 1862.45C1344.12 1862.45 1349.47 1861.65 1353.57 1860.05C1357.77 1858.35 1360.82 1856.1 1362.72 1853.3C1364.72 1850.5 1365.72 1847.4 1365.72 1844C1365.72 1839.9 1364.52 1836.6 1362.12 1834.1C1359.82 1831.6 1356.77 1829.65 1352.97 1828.25C1349.17 1826.75 1344.97 1825.45 1340.37 1824.35C1335.77 1823.25 1331.17 1822.1 1326.57 1820.9C1321.97 1819.6 1317.72 1817.9 1313.82 1815.8C1310.02 1813.7 1306.92 1810.95 1304.52 1807.55C1302.22 1804.05 1301.07 1799.5 1301.07 1793.9C1301.07 1788.7 1302.42 1783.95 1305.12 1779.65C1307.92 1775.25 1312.17 1771.75 1317.87 1769.15C1323.57 1766.45 1330.87 1765.1 1339.77 1765.1C1345.67 1765.1 1351.52 1765.95 1357.32 1767.65C1363.12 1769.25 1368.12 1771.5 1372.32 1774.4L1368.57 1783.25C1364.07 1780.25 1359.27 1778.05 1354.17 1776.65C1349.17 1775.25 1344.32 1774.55 1339.62 1774.55C1333.32 1774.55 1328.12 1775.4 1324.02 1777.1C1319.92 1778.8 1316.87 1781.1 1314.87 1784C1312.97 1786.8 1312.02 1790 1312.02 1793.6C1312.02 1797.7 1313.17 1801 1315.47 1803.5C1317.87 1806 1320.97 1807.95 1324.77 1809.35C1328.67 1810.75 1332.92 1812 1337.52 1813.1C1342.12 1814.2 1346.67 1815.4 1351.17 1816.7C1355.77 1818 1359.97 1819.7 1363.77 1821.8C1367.67 1823.8 1370.77 1826.5 1373.07 1829.9C1375.47 1833.3 1376.67 1837.75 1376.67 1843.25C1376.67 1848.35 1375.27 1853.1 1372.47 1857.5C1369.67 1861.8 1365.37 1865.3 1359.57 1868C1353.87 1870.6 1346.52 1871.9 1337.52 1871.9ZM1473.15 1871.9C1459.75 1871.9 1449.2 1868.05 1441.5 1860.35C1433.8 1852.65 1429.95 1841.25 1429.95 1826.15V1766H1441.05V1825.7C1441.05 1838.1 1443.85 1847.25 1449.45 1853.15C1455.05 1859.05 1462.95 1862 1473.15 1862C1483.45 1862 1491.4 1859.05 1497 1853.15C1502.6 1847.25 1505.4 1838.1 1505.4 1825.7V1766H1516.2V1826.15C1516.2 1841.25 1512.35 1852.65 1504.65 1860.35C1497.05 1868.05 1486.55 1871.9 1473.15 1871.9ZM1579.65 1871V1766H1590.75V1861.4H1649.55V1871H1579.65ZM1708.57 1871V1775.6H1671.67V1766H1756.57V1775.6H1719.67V1871H1708.57ZM1804.3 1871V1766H1815.4V1871H1804.3ZM1879.56 1871V1766H1888.71L1961.16 1857.2H1956.36V1766H1967.31V1871H1958.16L1885.86 1779.8H1890.66V1871H1879.56ZM2077.63 1871.9C2069.63 1871.9 2062.23 1870.6 2055.43 1868C2048.73 1865.3 2042.88 1861.55 2037.88 1856.75C2032.98 1851.95 2029.13 1846.3 2026.33 1839.8C2023.63 1833.3 2022.28 1826.2 2022.28 1818.5C2022.28 1810.8 2023.63 1803.7 2026.33 1797.2C2029.13 1790.7 2033.03 1785.05 2038.03 1780.25C2043.03 1775.45 2048.88 1771.75 2055.58 1769.15C2062.38 1766.45 2069.78 1765.1 2077.78 1765.1C2085.78 1765.1 2093.08 1766.35 2099.68 1768.85C2106.38 1771.35 2112.08 1775.15 2116.78 1780.25L2109.88 1787.3C2105.48 1782.9 2100.63 1779.75 2095.33 1777.85C2090.03 1775.95 2084.33 1775 2078.23 1775C2071.73 1775 2065.73 1776.1 2060.23 1778.3C2054.83 1780.4 2050.08 1783.45 2045.98 1787.45C2041.98 1791.35 2038.83 1795.95 2036.53 1801.25C2034.33 1806.45 2033.23 1812.2 2033.23 1818.5C2033.23 1824.7 2034.33 1830.45 2036.53 1835.75C2038.83 1841.05 2041.98 1845.7 2045.98 1849.7C2050.08 1853.6 2054.83 1856.65 2060.23 1858.85C2065.73 1860.95 2071.68 1862 2078.08 1862C2084.08 1862 2089.73 1861.1 2095.03 1859.3C2100.43 1857.5 2105.38 1854.45 2109.88 1850.15L2116.18 1858.55C2111.18 1862.95 2105.33 1866.3 2098.63 1868.6C2091.93 1870.8 2084.93 1871.9 2077.63 1871.9ZM2105.53 1857.2V1818.5H2116.18V1858.55L2105.53 1857.2Z" fill="black"/>
<path d="M454 1521.9H565V1540.8H454V1521.9ZM456.4 1618.8H582.7V1638H434.2V1428H578.2V1447.2H456.4V1618.8ZM679.884 1638V1428H765.384C787.784 1428 807.384 1432.5 824.184 1441.5C841.184 1450.3 854.384 1462.6 863.784 1478.4C873.184 1494.2 877.884 1512.4 877.884 1533C877.884 1553.6 873.184 1571.8 863.784 1587.6C854.384 1603.4 841.184 1615.8 824.184 1624.8C807.384 1633.6 787.784 1638 765.384 1638H679.884ZM702.084 1618.8H764.184C782.784 1618.8 798.884 1615.2 812.484 1608C826.284 1600.6 836.984 1590.5 844.584 1577.7C852.184 1564.7 855.984 1549.8 855.984 1533C855.984 1516 852.184 1501.1 844.584 1488.3C836.984 1475.5 826.284 1465.5 812.484 1458.3C798.884 1450.9 782.784 1447.2 764.184 1447.2H702.084V1618.8ZM992.535 1521.9H1103.54V1540.8H992.535V1521.9ZM994.935 1618.8H1121.24V1638H972.735V1428H1116.74V1447.2H994.935V1618.8ZM1218.42 1638V1428H1240.62V1618.8H1358.22V1638H1218.42ZM1471.96 1638L1401.16 1428H1423.96L1490.26 1625.7H1478.86L1547.26 1428H1567.66L1635.16 1625.7H1624.36L1691.26 1428H1712.56L1641.76 1638H1618.36L1553.86 1450.5H1559.86L1495.06 1638H1471.96ZM1818.06 1521.9H1929.06V1540.8H1818.06V1521.9ZM1820.46 1618.8H1946.76V1638H1798.26V1428H1942.26V1447.2H1820.46V1618.8ZM2043.95 1638V1428H2066.15V1638H2043.95ZM2237.37 1639.8C2221.77 1639.8 2206.77 1637.3 2192.37 1632.3C2178.17 1627.1 2167.17 1620.5 2159.37 1612.5L2168.07 1595.4C2175.47 1602.6 2185.37 1608.7 2197.77 1613.7C2210.37 1618.5 2223.57 1620.9 2237.37 1620.9C2250.57 1620.9 2261.27 1619.3 2269.47 1616.1C2277.87 1612.7 2283.97 1608.2 2287.77 1602.6C2291.77 1597 2293.77 1590.8 2293.77 1584C2293.77 1575.8 2291.37 1569.2 2286.57 1564.2C2281.97 1559.2 2275.87 1555.3 2268.27 1552.5C2260.67 1549.5 2252.27 1546.9 2243.07 1544.7C2233.87 1542.5 2224.67 1540.2 2215.47 1537.8C2206.27 1535.2 2197.77 1531.8 2189.97 1527.6C2182.37 1523.4 2176.17 1517.9 2171.37 1511.1C2166.77 1504.1 2164.47 1495 2164.47 1483.8C2164.47 1473.4 2167.17 1463.9 2172.57 1455.3C2178.17 1446.5 2186.67 1439.5 2198.07 1434.3C2209.47 1428.9 2224.07 1426.2 2241.87 1426.2C2253.67 1426.2 2265.37 1427.9 2276.97 1431.3C2288.57 1434.5 2298.57 1439 2306.97 1444.8L2299.47 1462.5C2290.47 1456.5 2280.87 1452.1 2270.67 1449.3C2260.67 1446.5 2250.97 1445.1 2241.57 1445.1C2228.97 1445.1 2218.57 1446.8 2210.37 1450.2C2202.17 1453.6 2196.07 1458.2 2192.07 1464C2188.27 1469.6 2186.37 1476 2186.37 1483.2C2186.37 1491.4 2188.67 1498 2193.27 1503C2198.07 1508 2204.27 1511.9 2211.87 1514.7C2219.67 1517.5 2228.17 1520 2237.37 1522.2C2246.57 1524.4 2255.67 1526.8 2264.67 1529.4C2273.87 1532 2282.27 1535.4 2289.87 1539.6C2297.67 1543.6 2303.87 1549 2308.47 1555.8C2313.27 1562.6 2315.67 1571.5 2315.67 1582.5C2315.67 1592.7 2312.87 1602.2 2307.27 1611C2301.67 1619.6 2293.07 1626.6 2281.47 1632C2270.07 1637.2 2255.37 1639.8 2237.37 1639.8ZM2466.94 1639.8C2451.34 1639.8 2436.34 1637.3 2421.94 1632.3C2407.74 1627.1 2396.74 1620.5 2388.94 1612.5L2397.64 1595.4C2405.04 1602.6 2414.94 1608.7 2427.34 1613.7C2439.94 1618.5 2453.14 1620.9 2466.94 1620.9C2480.14 1620.9 2490.84 1619.3 2499.04 1616.1C2507.44 1612.7 2513.54 1608.2 2517.34 1602.6C2521.34 1597 2523.34 1590.8 2523.34 1584C2523.34 1575.8 2520.94 1569.2 2516.14 1564.2C2511.54 1559.2 2505.44 1555.3 2497.84 1552.5C2490.24 1549.5 2481.84 1546.9 2472.64 1544.7C2463.44 1542.5 2454.24 1540.2 2445.04 1537.8C2435.84 1535.2 2427.34 1531.8 2419.54 1527.6C2411.94 1523.4 2405.74 1517.9 2400.94 1511.1C2396.34 1504.1 2394.04 1495 2394.04 1483.8C2394.04 1473.4 2396.74 1463.9 2402.14 1455.3C2407.74 1446.5 2416.24 1439.5 2427.64 1434.3C2439.04 1428.9 2453.64 1426.2 2471.44 1426.2C2483.24 1426.2 2494.94 1427.9 2506.54 1431.3C2518.14 1434.5 2528.14 1439 2536.54 1444.8L2529.04 1462.5C2520.04 1456.5 2510.44 1452.1 2500.24 1449.3C2490.24 1446.5 2480.54 1445.1 2471.14 1445.1C2458.54 1445.1 2448.14 1446.8 2439.94 1450.2C2431.74 1453.6 2425.64 1458.2 2421.64 1464C2417.84 1469.6 2415.94 1476 2415.94 1483.2C2415.94 1491.4 2418.24 1498 2422.84 1503C2427.64 1508 2433.84 1511.9 2441.44 1514.7C2449.24 1517.5 2457.74 1520 2466.94 1522.2C2476.14 1524.4 2485.24 1526.8 2494.24 1529.4C2503.44 1532 2511.84 1535.4 2519.44 1539.6C2527.24 1543.6 2533.44 1549 2538.04 1555.8C2542.84 1562.6 2545.24 1571.5 2545.24 1582.5C2545.24 1592.7 2542.44 1602.2 2536.84 1611C2531.24 1619.6 2522.64 1626.6 2511.04 1632C2499.64 1637.2 2484.94 1639.8 2466.94 1639.8Z" fill="black"/>
</svg>
